<?xml version="1.0" encoding="UTF-8"?>
<svg id="Layer_1" xmlns="http://www.w3.org/2000/svg" version="1.1" viewBox="0 0 128 128">
  <!-- Generator: Adobe Illustrator 29.1.0, SVG Export Plug-In . SVG Version: 2.1.0 Build 142)  -->
  <defs>
    <style>
      .st0 {
        fill: #fff;
      }
    </style>
  </defs>
  <path class="st0" d="M66.6,126.01l-2.52-62.18c.23,0-.22.04,0,0l10.3,61.37c-2.56.43-5.18.71-7.78.81ZM58.81,125.85c-2.6-.22-5.21-.6-7.75-1.14l13.02-60.88c.22.05-.23-.02,0,0l-5.26,62.02ZM82.03,123.4l-17.95-59.57c.2-.06-.2.09,0,0l25.32,56.82c-2.39,1.07-4.87,2-7.37,2.76ZM43.48,122.59c-2.46-.86-4.9-1.89-7.24-3.06l27.84-55.7c.2.1-.2-.07,0,0l-20.6,58.76ZM96.34,116.99l-32.26-53.16c.19-.12-.18.14,0,0l38.68,48.67c-2.04,1.63-4.19,3.14-6.41,4.49ZM29.45,115.58c-2.16-1.45-4.25-3.04-6.21-4.75l40.84-47c.18.15-.19-.13,0,0l-34.63,51.75ZM108.55,107.25l-44.47-43.42c.16-.17-.14.18,0,0l49.56,37.48c-1.56,2.08-3.28,4.07-5.09,5.94ZM17.67,105.34c-1.73-1.94-3.36-4.01-4.84-6.15l51.24-35.37c.13.19-.15-.17,0,0l-46.41,41.51ZM117.95,94.77l-53.87-30.94c.11-.19-.08.2,0,0l57.33,23.89c-1,2.41-2.17,4.78-3.46,7.05ZM8.8,92.48c-1.2-2.32-2.27-4.74-3.16-7.19l58.44-21.45c.07.2-.1-.19,0,0l-55.28,28.65ZM123.96,80.27l-59.88-16.44c.06-.21-.03.22,0,0l61.46,8.75c-.36,2.59-.89,5.18-1.58,7.69ZM3.41,77.74c-.58-2.54-1-5.14-1.25-7.74l61.92-6.17c.02.22-.05-.21,0,0L3.41,77.74ZM126.13,64.8l-62.05-.97h0c0-.21.02.2,0,0l61.67-6.83c.26,2.29.38,4.62.38,6.93,0,.29,0,.58,0,.87ZM64.08,63.83l-62.22.1c0-2.6.16-5.22.49-7.79l61.73,7.69c-.03.23,0-.24,0,0ZM64.08,63.83c-.05-.21.08.2,0,0l57.98-22.07c.93,2.44,1.72,4.97,2.33,7.51l-60.31,14.55ZM64.08,63.83L3.82,48.43c.65-2.53,1.47-5.05,2.44-7.49l57.82,22.88c-.08.2.05-.21,0,0ZM64.08,63.83c-.11-.2.13.18,0,0l50.59-35.87c1.51,2.12,2.9,4.36,4.13,6.66l-54.72,29.21ZM64.08,63.83L9.62,33.85c1.26-2.28,2.68-4.5,4.22-6.6l50.23,36.59c-.13.18.11-.2,0,0ZM64.08,63.83c-.16-.17.18.15,0,0l40.03-47.36c1.99,1.68,3.88,3.5,5.64,5.41l-45.67,41.95ZM64.08,63.83L18.86,21.23c1.79-1.89,3.71-3.68,5.72-5.33l39.51,47.93c-.18.15.16-.17,0,0ZM64.08,63.83c-.19-.12.2.1,0,0L90.99,7.95c2.35,1.13,4.65,2.43,6.84,3.85l-33.74,52.03ZM64.08,63.83L30.92,11.33c2.21-1.39,4.52-2.65,6.89-3.75l26.27,56.25c-.2.09.19-.12,0,0ZM64.08,63.83c-.2-.07.21.04,0,0L76.09,2.98c2.57.51,5.13,1.19,7.61,2.02l-19.62,58.84ZM64.08,63.83L45.13,4.72c2.49-.79,5.06-1.43,7.63-1.91l11.32,61.02c-.21.04.2-.07,0,0ZM64.08,63.83c-.13,0,.14.01,0,0-.11,0,.1,0,0,0L60.54,1.89c1.14-.06,2.31-.1,3.45-.1h.02c1.43,0,2.89.05,4.32.15l-4.25,61.89Z"/>
</svg>